# xmcd CD database file
#
# Track frame offsets:
#	182
#	27780
#	63772
#	98992
#	129235
#	157022
#	181165
#
# Disc length: 2766 seconds
#
# Revision: 0
# Processed by: cddbd v1.4PL0 Copyright (c) Steve Scherf et al.
# Submitted via: CDex 1.51
#
DISCID=4e0acc07
DTITLE=Stella Levitt - Quarto
DYEAR=1981
DGENRE=Salsa
TTITLE0=It's impossible
TTITLE1=May I come in?
TTITLE2=The night has a trousand eyes
TTITLE3=Alfie
TTITLE4=Note so high
TTITLE5=Heaven's doors are open wide
TTITLE6=Social call
EXTD=YEAR: 1981
EXTT0=
EXTT1=
EXTT2=
EXTT3=
EXTT4=
EXTT5=
EXTT6=
PLAYORDER=
